<svg width="140" height="140" viewBox="0 0 140 140" fill="none" xmlns="http://www.w3.org/2000/svg">
<path d="M70 11.6667C62.3396 11.6667 54.7541 13.1755 47.6768 16.107C40.5995 19.0386 34.1689 23.3354 28.7521 28.7521C17.8125 39.6917 11.6667 54.5291 11.6667 70C11.6667 95.7833 28.4084 117.658 51.5667 125.417C54.4834 125.883 55.4167 124.075 55.4167 122.5V112.642C39.2584 116.142 35.8167 104.825 35.8167 104.825C33.1334 98.0583 29.3417 96.25 29.3417 96.25C24.0334 92.6333 29.75 92.75 29.75 92.75C35.5834 93.1583 38.675 98.7584 38.675 98.7584C43.75 107.625 52.325 105 55.65 103.6C56.175 99.8083 57.6917 97.2417 59.325 95.7833C46.375 94.325 32.7834 89.3083 32.7834 67.0834C32.7834 60.6084 35 55.4167 38.7917 51.275C38.2084 49.8167 36.1667 43.75 39.375 35.875C39.375 35.875 44.275 34.3 55.4167 41.825C60.025 40.5417 65.0417 39.9 70 39.9C74.9584 39.9 79.975 40.5417 84.5834 41.825C95.725 34.3 100.625 35.875 100.625 35.875C103.833 43.75 101.792 49.8167 101.208 51.275C105 55.4167 107.217 60.6084 107.217 67.0834C107.217 89.3667 93.5667 94.2667 80.5583 95.725C82.6584 97.5333 84.5834 101.092 84.5834 106.517V122.5C84.5834 124.075 85.5167 125.942 88.4917 125.417C111.65 117.6 128.333 95.7833 128.333 70C128.333 62.3396 126.825 54.7541 123.893 47.6768C120.961 40.5995 116.665 34.1689 111.248 28.7521C105.831 23.3354 99.4005 19.0386 92.3232 16.107C85.2459 13.1755 77.6605 11.6667 70 11.6667Z" fill="#8A0000"/>
<path d="M83.7618 112.36L81.7432 103.165L93.1157 100.668C94.0057 100.473 94.9181 100.388 95.8307 100.417L98.2914 100.496L98.3826 100.235C99.2682 97.7072 101.017 95.5866 103.316 94.2535L107.776 91.6668L107.353 89.7386C107.169 88.9032 107.272 88.0312 107.645 87.2659L109.693 83.0535L110.087 83.259C110.509 83.4787 110.834 83.8525 110.994 84.3043C111.154 84.7561 111.138 85.2519 110.949 85.6903L110.5 86.7316L112.014 84.9536L112.482 83.0611C112.548 82.7939 112.671 82.545 112.843 82.3319C113.015 82.1189 113.231 81.9469 113.477 81.8282C113.722 81.7095 113.991 81.647 114.264 81.645C114.536 81.643 114.806 81.7016 115.055 81.8167L115.142 81.8574L115.646 88.4933L111.711 92.2486L108.365 98.8895C107.515 100.576 106.258 102.016 104.71 103.078L102.933 104.296L102.348 105.222C102.086 105.638 101.745 105.997 101.345 106.278C100.945 106.56 100.493 106.759 100.016 106.864L98.7963 107.131L95.3042 109.232C94.2755 109.851 93.1541 110.298 91.9831 110.555L83.7618 112.36Z" fill="white"/>
<rect x="26.2929" y="83.7554" width="34.2358" height="15.2671" transform="rotate(34.1196 26.2929 83.7554)" fill="#8A0000"/>
<rect x="40.0804" y="119.622" width="20.786" height="15.2838" transform="rotate(-88.5028 40.0804 119.622)" fill="#8A0000"/>
<path d="M33.8538 112.472C33.8538 112.472 35.1529 97.8571 39.0503 92.5437L45.5459 93.8428L44.2468 97.8571H41.6485V107.159H42.9476C45.5459 103.171 50.9243 101.716 54.1721 103.171C58.4592 105.158 58.0695 111.147 54.1721 113.797C51.0542 115.928 41.6485 117.786 33.8538 112.472Z" fill="white"/>
</svg>
